<svg xmlns="http://www.w3.org/2000/svg" viewBox="0 0 64 64"><rect width="64" height="64" rx="15" fill="#1d1d1f"/><g transform="rotate(-45 32 32)" stroke="#1d1d1f" stroke-width="1.2" stroke-linejoin="round" stroke-linecap="round"><path d="M30.2 15V7.2l.9-5.7c2.4 3.2 3.5 7.6 2.9 13.5z" fill="#f1f3f5"/><path d="M31 11.5c.8-.35 1.6-.35 2.3 0" fill="none" stroke-width=".7" opacity=".5"/><rect x="29.6" y="14.8" width="4.8" height="3.2" rx=".7" fill="#9ea3a8"/><rect x="29.3" y="17.8" width="5.4" height="29.2" rx="2.2" fill="#dfe2e5"/><rect x="30.4" y="19.5" width="1.1" height="25.5" rx=".55" fill="#ffffff" stroke="none"/><rect x="29.3" y="31" width="5.4" height="2.2" fill="#a9aeb3" stroke-width=".9"/><path d="M29.5 47h5l-.7 5h-3.6z" fill="#868b90"/><path d="M30.1 52h3.8c.2 3.6-.4 6.6-1.9 10-1.5-3.4-2.1-6.4-1.9-10z" fill="#c9cdd1"/><circle cx="32" cy="55" r=".7" fill="#1d1d1f" stroke="none"/><path d="M32 56v4.8" fill="none" stroke-width=".75"/></g><g transform="rotate(45 32 32)" stroke="#1d1d1f" stroke-width="1.2" stroke-linejoin="round" stroke-linecap="round"><path d="M30.2 15V7.2l.9-5.7c2.4 3.2 3.5 7.6 2.9 13.5z" fill="#f1f3f5"/><path d="M31 11.5c.8-.35 1.6-.35 2.3 0" fill="none" stroke-width=".7" opacity=".5"/><rect x="29.6" y="14.8" width="4.8" height="3.2" rx=".7" fill="#9ea3a8"/><rect x="29.3" y="17.8" width="5.4" height="29.2" rx="2.2" fill="#dfe2e5"/><rect x="30.4" y="19.5" width="1.1" height="25.5" rx=".55" fill="#ffffff" stroke="none"/><rect x="29.3" y="31" width="5.4" height="2.2" fill="#a9aeb3" stroke-width=".9"/><path d="M29.5 47h5l-.7 5h-3.6z" fill="#868b90"/><path d="M30.1 52h3.8c.2 3.6-.4 6.6-1.9 10-1.5-3.4-2.1-6.4-1.9-10z" fill="#c9cdd1"/><circle cx="32" cy="55" r=".7" fill="#1d1d1f" stroke="none"/><path d="M32 56v4.8" fill="none" stroke-width=".75"/></g><g transform="translate(32 34.2) scale(0.62) translate(-32 -35)"><path d="M32 24.4C27 20.6 19.5 20 13 21.6v24.2c6.5-1.5 14-.9 19 3z M32 24.4c5-3.8 12.5-4.4 19-2.8v24.2c-6.5-1.5-14-.9-19 3z" fill="#000"/><path d="M32 23C27 19.2 19.5 18.6 13 20.2v24.2c6.5-1.5 14-.9 19 3z" fill="#d6f25f" stroke="#1d1d1f" stroke-width="1.5" stroke-linejoin="round"/><path d="M32 23c5-3.8 12.5-4.4 19-2.8v24.2c-6.5-1.5-14-.9-19 3z" fill="#b9b0f5" stroke="#1d1d1f" stroke-width="1.5" stroke-linejoin="round"/><path d="M16 35.5H22.5l2.4-4.2 3.6 9.6 3.3-12 3.2 9.8 2.1-3.2H48" fill="none" stroke="#1d1d1f" stroke-width="2.8" stroke-linecap="round" stroke-linejoin="round"/></g></svg>
